<svg width="100%" viewBox="0 0 1579 789" fill="none" preserveAspectRatio="none" xmlns="http://www.w3.org/2000/svg">
<path d="M1578.06 300.863L789.528 2.00015" stroke="#00FF29" stroke-opacity="0.2" stroke-width="2.51367"/>
<path d="M1577.51 327.824L789.528 2.00019" stroke="#00FF29" stroke-opacity="0.2" stroke-width="2.51367"/>
<path d="M1578.06 360.27L789.528 2.00026" stroke="#00FF29" stroke-opacity="0.2" stroke-width="2.51367"/>
<path d="M1578.06 400.484L789.528 2.00022" stroke="#00FF29" stroke-opacity="0.2" stroke-width="2.51367"/>
<path d="M1578.06 450.751L789.528 2.00015" stroke="#00FF29" stroke-opacity="0.2" stroke-width="2.51367"/>
<path d="M1578.06 514.728L789.528 2.00015" stroke="#00FF29" stroke-opacity="0.2" stroke-width="2.51367"/>
<path d="M1578.06 600.64L789.528 2.00018" stroke="#00FF29" stroke-opacity="0.2" stroke-width="2.51367"/>
<path d="M1578.06 721.281L789.528 2.00019" stroke="#00FF29" stroke-opacity="0.2" stroke-width="2.51367"/>
<path d="M1477.58 788L789.528 2.00027" stroke="#00FF29" stroke-opacity="0.2" stroke-width="2.51367"/>
<path d="M1302.84 788L789.528 2.00026" stroke="#00FF29" stroke-opacity="0.2" stroke-width="2.51367"/>
<path d="M1129.18 788L789.528 2.00026" stroke="#00FF29" stroke-opacity="0.2" stroke-width="2.51367"/>
<path d="M955.534 788L789.528 2.00025" stroke="#00FF29" stroke-opacity="0.2" stroke-width="2.51367"/>
<path d="M1 300.863L789.528 2.00026" stroke="#00FF29" stroke-opacity="0.2" stroke-width="2.51367"/>
<path d="M1.5459 327.825L789.528 2.00024" stroke="#00FF29" stroke-opacity="0.2" stroke-width="2.51367"/>
<path d="M1 360.27L789.528 2.00018" stroke="#00FF29" stroke-opacity="0.2" stroke-width="2.51367"/>
<path d="M0.999756 400.484L789.528 2.0002" stroke="#00FF29" stroke-opacity="0.2" stroke-width="2.51367"/>
<path d="M0.999756 450.751L789.528 2.00029" stroke="#00FF29" stroke-opacity="0.2" stroke-width="2.51367"/>
<path d="M0.999756 514.728L789.528 2.00028" stroke="#00FF29" stroke-opacity="0.2" stroke-width="2.51367"/>
<path d="M0.999756 600.64L789.528 2.00015" stroke="#00FF29" stroke-opacity="0.2" stroke-width="2.51367"/>
<path d="M0.999756 721.281L789.528 2.00014" stroke="#00FF29" stroke-opacity="0.2" stroke-width="2.51367"/>
<path d="M101.477 788L789.527 2.00023" stroke="#00FF29" stroke-opacity="0.2" stroke-width="2.51367"/>
<path d="M276.22 788L789.527 2.00023" stroke="#00FF29" stroke-opacity="0.2" stroke-width="2.51367"/>
<path d="M449.871 788L789.528 2.00024" stroke="#00FF29" stroke-opacity="0.2" stroke-width="2.51367"/>
<path d="M623.522 788L789.528 2.00025" stroke="#00FF29" stroke-opacity="0.2" stroke-width="2.51367"/>
<path d="M1578.06 692.035L5.36852 692.035" stroke="#00FF29" stroke-opacity="0.2" stroke-width="2.51367"/>
<path d="M1578.06 616.177L5.36852 616.177" stroke="#00FF29" stroke-opacity="0.2" stroke-width="2.51367"/>
<path d="M1578.06 554.028L5.36852 554.028" stroke="#00FF29" stroke-opacity="0.2" stroke-width="2.51367"/>
<path d="M1578.06 504.674L5.36852 504.675" stroke="#00FF29" stroke-opacity="0.2" stroke-width="2.51367"/>
<path d="M1578.06 462.633L5.36852 462.633" stroke="#00FF29" stroke-opacity="0.2" stroke-width="2.51367"/>
<path d="M1578.06 427.902L5.36852 427.903" stroke="#00FF29" stroke-opacity="0.2" stroke-width="2.51367"/>
<path d="M1578.06 397.742L5.36852 397.742" stroke="#00FF29" stroke-opacity="0.2" stroke-width="2.51367"/>
<path d="M1578.06 371.237L5.36852 371.237" stroke="#00FF29" stroke-opacity="0.2" stroke-width="2.51367"/>
<path d="M1578.06 347.474L5.36852 347.475" stroke="#00FF29" stroke-opacity="0.2" stroke-width="2.51367"/>
<path d="M1578.06 327.367L5.36852 327.368" stroke="#00FF29" stroke-opacity="0.2" stroke-width="2.51367"/>
<path d="M1578.06 310.002L5.36852 310.002" stroke="#00FF29" stroke-opacity="0.2" stroke-width="2.51367"/>
<path d="M1578.06 293.551L5.36852 293.551" stroke="#00FF29" stroke-opacity="0.2" stroke-width="2.51367"/>
</svg>
