<svg width="55" height="55" viewBox="0 0 55 55" fill="none" xmlns="http://www.w3.org/2000/svg">
<path d="M8.05664 55H46.9434C51.3858 55 55 51.3858 55 46.9434V8.05664C55 3.61416 51.3858 0 46.9434 0H8.05664C3.61416 0 0 3.61416 0 8.05664V46.9434C0 51.3858 3.61416 55 8.05664 55ZM3.22266 8.05664C3.22266 5.39124 5.39124 3.22266 8.05664 3.22266H46.9434C49.6088 3.22266 51.7773 5.39124 51.7773 8.05664V46.9434C51.7773 49.6088 49.6088 51.7773 46.9434 51.7773H8.05664C5.39124 51.7773 3.22266 49.6088 3.22266 46.9434V8.05664Z" fill="#42FF00"/>
<path d="M27.5 42.002C35.4962 42.002 42.002 35.4962 42.002 27.5C42.002 19.5038 35.4962 12.998 27.5 12.998C19.5038 12.998 12.998 19.5038 12.998 27.5C12.998 35.4962 19.5038 42.002 27.5 42.002ZM27.5 16.2207C33.7196 16.2207 38.7793 21.2804 38.7793 27.5C38.7793 33.7196 33.7196 38.7793 27.5 38.7793C21.2804 38.7793 16.2207 33.7196 16.2207 27.5C16.2207 21.2804 21.2804 16.2207 27.5 16.2207Z" fill="#42FF00"/>
<path d="M43.6133 16.2207C46.2787 16.2207 48.4473 14.0521 48.4473 11.3867C48.4473 8.72131 46.2787 6.55273 43.6133 6.55273C40.9479 6.55273 38.7793 8.72131 38.7793 11.3867C38.7793 14.0521 40.9479 16.2207 43.6133 16.2207ZM43.6133 9.77539C44.5016 9.77539 45.2246 10.4984 45.2246 11.3867C45.2246 12.275 44.5016 12.998 43.6133 12.998C42.725 12.998 42.002 12.275 42.002 11.3867C42.002 10.4984 42.725 9.77539 43.6133 9.77539Z" fill="#42FF00"/>
</svg>
